<svg id="visual" viewBox="0 0 1080 200" width="1080" height="200" xmlns="http://www.w3.org/2000/svg" xmlns:xlink="http://www.w3.org/1999/xlink" version="1.1"><path d="M0 54L45 65.3C90 76.7 180 99.3 270 103.7C360 108 450 94 540 81.8C630 69.7 720 59.3 810 60.7C900 62 990 75 1035 81.5L1080 88L1080 201L1035 201C990 201 900 201 810 201C720 201 630 201 540 201C450 201 360 201 270 201C180 201 90 201 45 201L0 201Z" fill="#69b8fa"></path><path d="M0 103L45 98.8C90 94.7 180 86.3 270 90C360 93.7 450 109.3 540 113.3C630 117.3 720 109.7 810 105.8C900 102 990 102 1035 102L1080 102L1080 201L1035 201C990 201 900 201 810 201C720 201 630 201 540 201C450 201 360 201 270 201C180 201 90 201 45 201L0 201Z" fill="#55a7e9"></path><path d="M0 120L45 123.5C90 127 180 134 270 142.5C360 151 450 161 540 164.8C630 168.7 720 166.3 810 164.8C900 163.3 990 162.7 1035 162.3L1080 162L1080 201L1035 201C990 201 900 201 810 201C720 201 630 201 540 201C450 201 360 201 270 201C180 201 90 201 45 201L0 201Z" fill="#3f97d8"></path><path d="M0 163L45 159C90 155 180 147 270 143C360 139 450 139 540 141C630 143 720 147 810 151C900 155 990 159 1035 161L1080 163L1080 201L1035 201C990 201 900 201 810 201C720 201 630 201 540 201C450 201 360 201 270 201C180 201 90 201 45 201L0 201Z" fill="#2487c7"></path></svg>