<svg id="visual" viewBox="0 0 1080 200" width="1080" height="200" xmlns="http://www.w3.org/2000/svg" xmlns:xlink="http://www.w3.org/1999/xlink" version="1.1"><path d="M0 18L25.7 16.7C51.3 15.3 102.7 12.7 154.2 13.8C205.7 15 257.3 20 308.8 27.3C360.3 34.7 411.7 44.3 463 54.8C514.3 65.3 565.7 76.7 617 86.3C668.3 96 719.7 104 771.2 97.8C822.7 91.7 874.3 71.3 925.8 70.8C977.3 70.3 1028.7 89.7 1054.3 99.3L1080 109L1080 201L1054.3 201C1028.7 201 977.3 201 925.8 201C874.3 201 822.7 201 771.2 201C719.7 201 668.3 201 617 201C565.7 201 514.3 201 463 201C411.7 201 360.3 201 308.8 201C257.3 201 205.7 201 154.2 201C102.7 201 51.3 201 25.7 201L0 201Z" fill="#69b8fa"></path><path d="M0 52L25.7 61.3C51.3 70.7 102.7 89.3 154.2 96.5C205.7 103.7 257.3 99.3 308.8 102.8C360.3 106.3 411.7 117.7 463 113.7C514.3 109.7 565.7 90.3 617 80.3C668.3 70.3 719.7 69.7 771.2 79.8C822.7 90 874.3 111 925.8 114.2C977.3 117.3 1028.7 102.7 1054.3 95.3L1080 88L1080 201L1054.3 201C1028.7 201 977.3 201 925.8 201C874.3 201 822.7 201 771.2 201C719.7 201 668.3 201 617 201C565.7 201 514.3 201 463 201C411.7 201 360.3 201 308.8 201C257.3 201 205.7 201 154.2 201C102.7 201 51.3 201 25.7 201L0 201Z" fill="#5aabed"></path><path d="M0 124L25.7 120.3C51.3 116.7 102.7 109.3 154.2 102.2C205.7 95 257.3 88 308.8 90.7C360.3 93.3 411.7 105.7 463 109.7C514.3 113.7 565.7 109.3 617 107.8C668.3 106.3 719.7 107.7 771.2 113.7C822.7 119.7 874.3 130.3 925.8 131.2C977.3 132 1028.7 123 1054.3 118.5L1080 114L1080 201L1054.3 201C1028.7 201 977.3 201 925.8 201C874.3 201 822.7 201 771.2 201C719.7 201 668.3 201 617 201C565.7 201 514.3 201 463 201C411.7 201 360.3 201 308.8 201C257.3 201 205.7 201 154.2 201C102.7 201 51.3 201 25.7 201L0 201Z" fill="#4a9fe0"></path><path d="M0 134L25.7 140.2C51.3 146.3 102.7 158.7 154.2 158.7C205.7 158.7 257.3 146.3 308.8 145C360.3 143.7 411.7 153.3 463 151.2C514.3 149 565.7 135 617 127.2C668.3 119.3 719.7 117.7 771.2 126.3C822.7 135 874.3 154 925.8 156.5C977.3 159 1028.7 145 1054.3 138L1080 131L1080 201L1054.3 201C1028.7 201 977.3 201 925.8 201C874.3 201 822.7 201 771.2 201C719.7 201 668.3 201 617 201C565.7 201 514.3 201 463 201C411.7 201 360.3 201 308.8 201C257.3 201 205.7 201 154.2 201C102.7 201 51.3 201 25.7 201L0 201Z" fill="#3993d3"></path><path d="M0 188L25.7 181C51.3 174 102.7 160 154.2 158C205.7 156 257.3 166 308.8 166.2C360.3 166.3 411.7 156.7 463 159.2C514.3 161.7 565.7 176.3 617 175.7C668.3 175 719.7 159 771.2 150.3C822.7 141.7 874.3 140.3 925.8 144C977.3 147.7 1028.7 156.3 1054.3 160.7L1080 165L1080 201L1054.3 201C1028.7 201 977.3 201 925.8 201C874.3 201 822.7 201 771.2 201C719.7 201 668.3 201 617 201C565.7 201 514.3 201 463 201C411.7 201 360.3 201 308.8 201C257.3 201 205.7 201 154.2 201C102.7 201 51.3 201 25.7 201L0 201Z" fill="#2487c7"></path></svg>