<svg id="visual" viewBox="0 0 900 450" width="900" height="450" xmlns="http://www.w3.org/2000/svg" xmlns:xlink="http://www.w3.org/1999/xlink" version="1.1"><path d="M0 336L129 273L257 285L386 271L514 330L643 267L771 280L900 263L900 451L771 451L643 451L514 451L386 451L257 451L129 451L0 451Z" fill="#0abcf5"></path><path d="M0 304L129 309L257 324L386 354L514 353L643 301L771 300L900 333L900 451L771 451L643 451L514 451L386 451L257 451L129 451L0 451Z" fill="#06a6d8"></path><path d="M0 353L129 330L257 372L386 348L514 341L643 331L771 381L900 343L900 451L771 451L643 451L514 451L386 451L257 451L129 451L0 451Z" fill="#0390bc"></path><path d="M0 364L129 402L257 384L386 374L514 384L643 390L771 402L900 371L900 451L771 451L643 451L514 451L386 451L257 451L129 451L0 451Z" fill="#017ba1"></path><path d="M0 405L129 394L257 410L386 430L514 419L643 408L771 406L900 394L900 451L771 451L643 451L514 451L386 451L257 451L129 451L0 451Z" fill="#006687"></path></svg>